<svg xmlns="http://www.w3.org/2000/svg" version="1.1" xmlns:xlink="http://www.w3.org/1999/xlink" xmlns:svgjs="http://svgjs.dev/svgjs" width="2000" height="434" viewBox="0 0 2000 434"><g transform="matrix(1,0,0,1,-1.2121212121210192,-0.7873463167466639)"><svg viewBox="0 0 396 86" data-background-color="#f9f6ed" preserveAspectRatio="xMidYMid meet" height="434" width="2000" xmlns="http://www.w3.org/2000/svg" xmlns:xlink="http://www.w3.org/1999/xlink"><g id="tight-bounds" transform="matrix(1,0,0,1,0.23999999999995225,0.15601793373321016)"><svg viewBox="0 0 395.52 85.6876350855089" height="85.6876350855089" width="395.52"><g><svg viewBox="0 0 534.7609147199041 115.853555113552" height="85.6876350855089" width="395.52"><g transform="matrix(1,0,0,1,139.24091471990417,33.160007950428735)"><svg viewBox="0 0 395.52 49.533539212694535" height="49.533539212694535" width="395.52"><g id="textblocktransform"><svg viewBox="0 0 395.52 49.533539212694535" height="49.533539212694535" width="395.52" id="textblock"><g><svg viewBox="0 0 395.52 49.533539212694535" height="49.533539212694535" width="395.52"><g transform="matrix(1,0,0,1,0,0)"><svg width="395.52" viewBox="1.05 -38.75 399.99 50.1" height="49.533539212694535" data-palette-color="#ffffff"><path d="M1.64-1.78L1.64-1.78Q1.95-2.42 2.29-3.21 2.64-4 2.93-4.93L2.93-4.93 3.59-6.54Q3.15-7.2 2.7-7.97 2.25-8.74 1.88-9.55 1.51-10.35 1.28-11.16 1.05-11.96 1.05-12.72L1.05-12.72Q1.05-12.77 1.43-12.81 1.81-12.84 2.38-12.87 2.95-12.89 3.63-12.9 4.3-12.92 4.87-12.93 5.44-12.94 5.82-12.95 6.2-12.96 6.2-12.96L6.2-12.96Q6.76-14.43 7.3-15.75 7.84-17.07 8.37-18.41 8.91-19.75 9.45-21.15 9.99-22.56 10.52-24.17L10.52-24.17Q11.55-27.2 12.52-29.49 13.5-31.79 14.36-33.76L14.36-33.76Q14.45-34.01 14.69-34.22 14.92-34.42 15.19-34.57 15.45-34.72 15.71-34.81 15.97-34.91 16.11-34.96L16.11-34.96Q16.21-34.99 16.86-35.18 17.5-35.38 18.33-35.6 19.17-35.82 19.98-35.99 20.8-36.16 21.29-36.16L21.29-36.16 21.73-36.16Q22.12-36.16 22.47-35.97 22.83-35.79 22.95-35.25L22.95-35.25Q24.12-32.25 25.45-28.7 26.78-25.15 28.05-20.87L28.05-20.87Q28.74-18.58 29.39-16.53 30.05-14.48 30.71-12.52 31.37-10.57 32.04-8.62 32.71-6.67 33.42-4.59L33.42-4.59Q33.64-3.71 33.87-3.2 34.11-2.69 34.3-2.39 34.5-2.1 34.62-1.97 34.74-1.83 34.74-1.68L34.74-1.68Q34.74-1.54 34.28-1.39L34.28-1.39 29.03 0.32Q28.44 0.54 27.83 0.76 27.22 0.98 26.68 1.15 26.15 1.32 25.74 1.43 25.34 1.54 25.17 1.54L25.17 1.54 25.02 1.54Q24.68 1.54 24.54 1.33 24.39 1.12 24.34 0.93L24.34 0.93Q24.1 0.12 23.85-0.52 23.61-1.17 23.38-1.82 23.14-2.47 22.91-3.2 22.68-3.93 22.46-4.93L22.46-4.93Q22.41-5.05 22.19-5.14 21.97-5.22 21.67-5.27 21.36-5.32 21.02-5.33 20.68-5.35 20.39-5.35L20.39-5.35Q19.46-5.35 18.88-5.33 18.31-5.32 17.87-5.31 17.43-5.3 17.03-5.29 16.63-5.27 16.04-5.27L16.04-5.27Q15.33-5.27 14.59-5.29 13.84-5.3 13.23-5.32L13.23-5.32 11.84-5.37Q11.21-3.61 10.57-2.08 9.94-0.54 9.2 1.1L9.2 1.1Q9.16 1.29 8.97 1.42 8.79 1.54 8.59 1.54L8.59 1.54Q8.45 1.54 8.42 1.51L8.42 1.51Q6.05 0.66 4.44-0.17 2.83-1 1.64-1.78ZM18.09-23.73L18.09-23.73Q17.5-21.56 16.93-19.79 16.36-18.02 15.88-16.65 15.41-15.28 15.06-14.34 14.72-13.4 14.58-12.89L14.58-12.89 14.58-12.67Q14.58-12.52 14.55-12.48L14.55-12.48 20.41-12.48Q20.14-13.67 19.84-14.89 19.53-16.11 19.24-17.46 18.95-18.8 18.65-20.34 18.36-21.88 18.09-23.73ZM63.62-27.66L61.11-4.91Q61.08-4.81 61.08-4.72 61.08-4.64 61.08-4.57L61.08-4.57Q61.08-3.96 61.28-3.55 61.47-3.15 61.7-2.89 61.94-2.64 62.13-2.48 62.33-2.32 62.33-2.2L62.33-2.2Q62.33-1.86 61.59-1.56L61.59-1.56 55.03 1.25Q55 1.27 54.86 1.27L54.86 1.27Q54.66 1.27 54.47 0.93 54.27 0.59 54.09 0.06 53.9-0.46 53.75-1.06 53.59-1.66 53.46-2.17L53.46-2.17Q51.93-0.39 50.14 0.44 48.36 1.27 46.6 1.27L46.6 1.27Q44.55 1.27 42.6 0.37 40.65-0.54 39.13-2.21 37.62-3.88 36.7-6.25 35.79-8.62 35.79-11.57L35.79-11.57Q35.79-15.06 36.8-17.94 37.81-20.83 39.55-22.9 41.28-24.98 43.59-26.11 45.9-27.25 48.48-27.25L48.48-27.25Q50.31-27.25 51.95-26.5 53.59-25.76 55.05-24.58L55.05-24.58Q55.2-25.32 55.22-25.76 55.25-26.2 55.33-26.44 55.42-26.68 55.66-26.77 55.91-26.86 56.47-26.9L56.47-26.9Q58.23-27.15 59.97-27.36 61.72-27.56 63.62-27.66L63.62-27.66ZM52.78-6.88L53.81-14.11Q54.05-15.5 54.14-16.74 54.22-17.97 54.27-18.99L54.27-18.99Q53.88-19.29 53.43-19.6 52.98-19.92 52.45-20.2 51.93-20.48 51.35-20.65 50.78-20.83 50.14-20.83L50.14-20.83Q48.83-20.83 47.93-19.97 47.04-19.12 46.49-17.87 45.94-16.63 45.71-15.23 45.48-13.84 45.48-12.77L45.48-12.77Q45.48-8.91 46.49-7.12 47.51-5.32 49.31-5.32L49.31-5.32Q50.05-5.32 50.95-5.74 51.85-6.15 52.78-6.88L52.78-6.88ZM82.22-0.95L76.85 11.13Q76.8 11.23 76.74 11.29 76.68 11.35 76.53 11.35L76.53 11.35Q76.39 11.35 76.31 11.33L76.31 11.33Q75.43 11.01 74.65 10.79 73.87 10.57 73.1 10.39 72.33 10.21 71.53 10.05 70.72 9.89 69.82 9.69L69.82 9.69Q69.58 9.64 69.44 9.53 69.31 9.42 69.31 9.16L69.31 9.16Q69.31 9.08 69.39 8.8 69.48 8.52 69.82 7.65 70.16 6.79 70.87 5.14 71.58 3.49 72.82 0.71L72.82 0.71Q72.46-0.51 71.99-2.22 71.53-3.93 71-5.96 70.48-7.98 69.92-10.24 69.36-12.5 68.78-14.81 68.21-17.11 67.63-19.37 67.06-21.63 66.52-23.68L66.52-23.68Q66.35-24.07 66.33-24.33 66.3-24.58 66.3-24.76L66.3-24.76Q66.3-25.1 66.69-25.2L66.69-25.2Q68.6-25.61 70.65-26.06 72.7-26.51 74.53-27.22L74.53-27.22Q74.6-27.25 74.75-27.25L74.75-27.25Q75.07-27.25 75.09-27L75.09-27 78.07-10.6Q78.17-10.89 78.45-11.66 78.73-12.43 79.11-13.5 79.49-14.58 79.95-15.87 80.41-17.16 80.9-18.51 81.39-19.85 81.87-21.18 82.34-22.51 82.76-23.66 83.17-24.8 83.48-25.68 83.78-26.56 83.95-27L83.95-27Q84.05-27.25 84.32-27.25L84.32-27.25Q84.39-27.25 84.42-27.23 84.44-27.22 84.52-27.22L84.52-27.22Q86.35-26.51 88.28-26.06 90.2-25.61 92.11-25.2L92.11-25.2Q92.57-25.1 92.57-24.66L92.57-24.66Q92.57-24.34 92.28-23.68L92.28-23.68 82.22-0.95ZM122.01-27L119.72-3.03Q119.65-2.22 119.52-1.92 119.4-1.61 118.99-1.51L118.99-1.51Q116.91-0.93 114.65-0.33 112.39 0.27 110.27 1.25L110.27 1.25Q110.2 1.27 110.05 1.27L110.05 1.27Q109.86 1.27 109.82 1.17 109.78 1.07 109.78 0.95L109.78 0.95Q109.78 0.9 109.79 0.78 109.81 0.66 109.86 0.33 109.9 0 109.99-0.59 110.08-1.17 110.22-2.15L110.22-2.15Q107.49-0.37 105.38 0.45 103.26 1.27 101.63 1.27L101.63 1.27Q97.55 1.27 95.68-0.7 93.82-2.66 93.82-6.57L93.82-6.57Q93.82-7.28 93.84-8.02 93.86-8.76 93.99-9.55L93.99-9.55Q94.26-12.43 94.45-14.49 94.65-16.55 94.77-17.99 94.89-19.43 94.98-20.35 95.06-21.26 95.12-21.88 95.18-22.49 95.22-22.89 95.26-23.29 95.31-23.68L95.31-23.68Q95.4-24.46 95.49-24.78 95.57-25.1 96.04-25.2L96.04-25.2Q97.18-25.42 98.22-25.6 99.26-25.78 100.27-25.99 101.29-26.2 102.34-26.44 103.39-26.68 104.56-27.03L104.56-27.03Q104.61-27.03 104.66-27.04 104.7-27.05 104.75-27.05L104.75-27.05Q105.05-27.05 105.05-26.86L105.05-26.86 105.05-26.81Q104.95-25.98 104.88-25.24 104.8-24.51 104.73-23.74 104.66-22.97 104.57-22.09 104.48-21.22 104.36-20.06 104.24-18.9 104.07-17.38 103.9-15.87 103.65-13.87L103.65-13.87Q103.51-12.4 103.36-10.95 103.22-9.5 103.22-8.25L103.22-8.25Q103.22-7.57 103.31-6.99 103.41-6.42 103.67-6.02 103.92-5.62 104.34-5.4 104.75-5.18 105.41-5.18L105.41-5.18Q105.93-5.18 106.8-5.41 107.68-5.64 108.56-6.21 109.44-6.79 110.11-7.73 110.78-8.67 110.88-10.11L110.88-10.11Q111.05-12.52 111.19-14.15 111.32-15.77 111.42-16.88 111.52-17.99 111.59-18.75 111.66-19.51 111.72-20.2 111.78-20.9 111.83-21.69 111.88-22.49 111.93-23.68L111.93-23.68Q112-24.49 112.11-24.79 112.22-25.1 112.66-25.2L112.66-25.2Q114.89-25.63 117.2-26.09 119.52-26.54 121.75-27.25L121.75-27.25Q121.94-27.25 121.98-27.19 122.01-27.12 122.01-27L122.01-27ZM125.6-0.07L125.28-6.74Q125.28-6.76 125.27-6.77 125.26-6.79 125.26-6.81L125.26-6.81Q125.26-7.13 125.6-7.13L125.6-7.13Q125.82-7.13 125.99-6.96L125.99-6.96Q126.97-6.03 128.22-5.44 129.48-4.86 130.95-4.86L130.95-4.86Q131.34-4.86 131.85-4.94 132.36-5.03 132.83-5.22 133.29-5.42 133.6-5.75 133.9-6.08 133.9-6.57L133.9-6.57Q133.9-7.1 133.63-7.56 133.36-8.01 132.92-8.3L132.92-8.3Q132.68-8.47 132.07-8.9 131.46-9.33 130.76-9.81 130.07-10.3 129.45-10.74 128.82-11.18 128.58-11.38L128.58-11.38Q127.48-12.21 126.83-13.06 126.19-13.92 125.84-14.83 125.5-15.75 125.41-16.75 125.31-17.75 125.31-18.87L125.31-18.87Q125.31-20.58 126.21-22.09 127.11-23.61 128.59-24.76 130.07-25.9 131.95-26.57 133.83-27.25 135.78-27.25L135.78-27.25Q137.39-27.25 138.95-26.76 140.52-26.27 141.86-25.1L141.86-25.1Q141.98-23.56 142.03-22.07 142.08-20.58 142.18-18.95L142.18-18.95Q142.18-18.63 142.03-18.52 141.88-18.41 141.69-18.41L141.69-18.41Q141.52-18.41 141.4-18.53L141.4-18.53Q140.83-19.07 140.25-19.59 139.66-20.12 139.02-20.52 138.37-20.92 137.64-21.18 136.9-21.44 136.07-21.44L136.07-21.44Q135.56-21.44 135.05-21.35 134.54-21.26 134.12-21.03 133.71-20.8 133.45-20.41 133.19-20.02 133.19-19.41L133.19-19.41Q133.19-18.7 133.36-18.19 133.53-17.68 134.17-17.19L134.17-17.19 138.71-14.11Q139.96-13.26 140.72-12.44 141.49-11.62 141.93-10.82 142.37-10.01 142.53-9.22 142.69-8.42 142.69-7.64L142.69-7.64Q142.69-5.44 141.68-3.77 140.66-2.1 139.05-0.99 137.44 0.12 135.4 0.7 133.36 1.27 131.31 1.27L131.31 1.27Q129.75 1.27 128.3 0.94 126.85 0.61 125.6-0.07L125.6-0.07ZM146.18 0.37L148.96-35.5Q148.96-35.64 148.95-35.77 148.94-35.89 148.94-36.01L148.94-36.01Q148.94-36.23 149.11-36.39 149.28-36.55 149.94-36.72L149.94-36.72 156.8-38.35Q157.07-38.4 157.51-38.57 157.95-38.75 158.36-38.75L158.36-38.75Q159.22-38.75 159.22-37.96L159.22-37.96Q159.22-37.92 159.14-36.96 159.07-36.01 158.95-34.59 158.83-33.18 158.68-31.51 158.53-29.83 158.39-28.32 158.24-26.81 158.12-25.67 158-24.54 157.92-24.19L157.92-24.19Q159.07-24.83 160.31-25.39 161.56-25.95 162.82-26.37 164.07-26.78 165.33-27.01 166.59-27.25 167.76-27.25L167.76-27.25Q169.25-27.25 170.54-26.82 171.84-26.39 172.8-25.4 173.77-24.41 174.32-22.81 174.87-21.22 174.87-18.9L174.87-18.9Q174.87-18.31 174.84-17.69 174.82-17.07 174.74-16.41L174.74-16.41 173.69-6.42Q173.57-5.4 173.55-4.28 173.52-3.17 173.52-2L173.52-2Q173.52-1.81 173.53-1.67 173.55-1.54 173.55-1.44L173.55-1.44Q173.55-1.22 173.36-1.1 173.18-0.98 172.55-0.78L172.55-0.78 166.56 0.88Q166.3 0.95 165.86 1.11 165.42 1.27 165 1.27L165 1.27Q164.59 1.27 164.37 1.09 164.15 0.9 164.15 0.37L164.15 0.37Q164.32-1.46 164.43-2.59 164.54-3.71 164.6-4.38 164.66-5.05 164.71-5.41 164.76-5.76 164.78-6.04 164.81-6.32 164.86-6.68 164.9-7.03 164.97-7.71 165.03-8.4 165.14-9.52 165.25-10.64 165.42-12.48L165.42-12.48Q165.51-13.45 165.62-14.42 165.73-15.38 165.73-16.19L165.73-16.19Q165.73-17.21 165.62-18.05 165.51-18.9 165.23-19.49 164.95-20.09 164.47-20.43 163.98-20.78 163.22-20.78L163.22-20.78Q162.66-20.78 161.69-20.53 160.73-20.29 159.77-19.73 158.8-19.17 158.06-18.25 157.31-17.33 157.21-15.99L157.21-15.99Q157.02-14.11 156.91-12.92 156.8-11.72 156.73-10.94 156.65-10.16 156.62-9.69 156.58-9.23 156.55-8.84L156.55-8.84Q156.53-8.72 156.48-8.24 156.43-7.76 156.36-7.1 156.29-6.45 156.21-5.7 156.14-4.96 156.08-4.3 156.02-3.64 155.98-3.16 155.94-2.69 155.94-2.56L155.94-2.56Q155.94-2.37 155.96-2.23 155.97-2.1 155.97-1.98L155.97-1.98Q155.97-1.78 155.79-1.65 155.6-1.51 154.97-1.34L154.97-1.34 148.6 0.88Q148.33 0.98 147.89 1.12 147.45 1.27 147.03 1.27L147.03 1.27Q146.67 1.27 146.42 1.06 146.18 0.85 146.18 0.37L146.18 0.37ZM190.68-0.37L190.27-9.08Q190.27-9.11 190.25-9.13 190.24-9.16 190.24-9.18L190.24-9.18Q190.24-9.59 190.68-9.59L190.68-9.59Q190.9-9.59 191.17-9.38L191.17-9.38Q192.49-8.13 194.1-7.4 195.71-6.67 197.61-6.67L197.61-6.67Q198.13-6.67 198.79-6.77 199.45-6.88 200.03-7.14 200.62-7.4 201.02-7.81 201.42-8.23 201.42-8.86L201.42-8.86Q201.42-9.57 201.08-10.13 200.74-10.69 200.18-11.08L200.18-11.08Q199.96-11.23 199.52-11.57 199.08-11.91 198.52-12.35 197.96-12.79 197.35-13.29 196.74-13.79 196.19-14.25 195.64-14.7 195.2-15.06 194.76-15.43 194.54-15.63L194.54-15.63Q193.1-16.7 192.26-17.8 191.41-18.9 190.97-20.09 190.53-21.29 190.41-22.57 190.29-23.85 190.29-25.29L190.29-25.29Q190.29-27.44 191.32-29.37 192.34-31.3 194.21-32.73 196.08-34.16 198.69-35 201.3-35.84 204.5-35.84L204.5-35.84Q204.89-35.84 205.67-35.75 206.45-35.67 207.39-35.47 208.33-35.28 209.31-34.94 210.29-34.59 211.09-34.06L211.09-34.06Q211.36-33.86 211.52-33.67 211.68-33.47 211.73-33.06L211.73-33.06Q211.85-31.08 211.92-29.16 211.99-27.25 212.12-25.1L212.12-25.1Q212.12-24.68 211.95-24.55 211.77-24.41 211.51-24.41L211.51-24.41Q211.24-24.41 211.09-24.56L211.09-24.56Q210.38-25.27 209.63-25.95 208.87-26.64 208.04-27.16 207.21-27.69 206.27-28 205.33-28.32 204.23-28.32L204.23-28.32Q203.57-28.32 202.91-28.21 202.25-28.1 201.72-27.81 201.18-27.51 200.85-27 200.52-26.49 200.52-25.71L200.52-25.71Q200.52-24.88 200.73-24.27 200.93-23.66 201.76-23.12L201.76-23.12 207.62-19.14Q209.24-17.99 210.24-16.86 211.24-15.72 211.8-14.6 212.36-13.48 212.57-12.39 212.78-11.3 212.78-10.25L212.78-10.25Q212.78-8.54 212.21-7.03 211.65-5.52 210.68-4.24 209.7-2.95 208.39-1.94 207.09-0.93 205.6-0.21 204.11 0.51 202.51 0.89 200.91 1.27 199.37 1.27L199.37 1.27Q198.18 1.27 197.02 1.23 195.86 1.2 194.76 1.04 193.66 0.88 192.63 0.55 191.61 0.22 190.68-0.37L190.68-0.37ZM215.78 0.37L218.56-35.5Q218.56-35.64 218.55-35.77 218.53-35.89 218.53-36.01L218.53-36.01Q218.53-36.23 218.71-36.39 218.88-36.55 219.54-36.72L219.54-36.72 226.4-38.35Q226.66-38.4 227.1-38.57 227.54-38.75 227.96-38.75L227.96-38.75Q228.81-38.75 228.81-37.96L228.81-37.96Q228.81-37.92 228.74-36.96 228.67-36.01 228.54-34.59 228.42-33.18 228.28-31.51 228.13-29.83 227.98-28.32 227.84-26.81 227.71-25.67 227.59-24.54 227.52-24.19L227.52-24.19Q228.67-24.83 229.91-25.39 231.16-25.95 232.41-26.37 233.67-26.78 234.93-27.01 236.19-27.25 237.36-27.25L237.36-27.25Q238.85-27.25 240.14-26.82 241.44-26.39 242.4-25.4 243.36-24.41 243.91-22.81 244.46-21.22 244.46-18.9L244.46-18.9Q244.46-18.31 244.44-17.69 244.41-17.07 244.34-16.41L244.34-16.41 243.29-6.42Q243.17-5.4 243.14-4.28 243.12-3.17 243.12-2L243.12-2Q243.12-1.81 243.13-1.67 243.14-1.54 243.14-1.44L243.14-1.44Q243.14-1.22 242.96-1.1 242.78-0.98 242.14-0.78L242.14-0.78 236.16 0.88Q235.89 0.95 235.45 1.11 235.01 1.27 234.6 1.27L234.6 1.27Q234.18 1.27 233.96 1.09 233.74 0.9 233.74 0.37L233.74 0.37Q233.92-1.46 234.03-2.59 234.14-3.71 234.2-4.38 234.26-5.05 234.31-5.41 234.36-5.76 234.38-6.04 234.4-6.32 234.45-6.68 234.5-7.03 234.56-7.71 234.62-8.4 234.73-9.52 234.84-10.64 235.01-12.48L235.01-12.48Q235.11-13.45 235.22-14.42 235.33-15.38 235.33-16.19L235.33-16.19Q235.33-17.21 235.22-18.05 235.11-18.9 234.83-19.49 234.55-20.09 234.06-20.43 233.57-20.78 232.82-20.78L232.82-20.78Q232.26-20.78 231.29-20.53 230.33-20.29 229.36-19.73 228.4-19.17 227.65-18.25 226.91-17.33 226.81-15.99L226.81-15.99Q226.62-14.11 226.51-12.92 226.4-11.72 226.32-10.94 226.25-10.16 226.21-9.69 226.18-9.23 226.15-8.84L226.15-8.84Q226.13-8.72 226.08-8.24 226.03-7.76 225.96-7.1 225.88-6.45 225.81-5.7 225.74-4.96 225.68-4.3 225.61-3.64 225.58-3.16 225.54-2.69 225.54-2.56L225.54-2.56Q225.54-2.37 225.55-2.23 225.57-2.1 225.57-1.98L225.57-1.98Q225.57-1.78 225.38-1.65 225.2-1.51 224.56-1.34L224.56-1.34 218.19 0.88Q217.92 0.98 217.48 1.12 217.05 1.27 216.63 1.27L216.63 1.27Q216.26 1.27 216.02 1.06 215.78 0.85 215.78 0.37L215.78 0.37ZM269.68-27.44L268.17-19.87Q267.65-19.92 267.02-19.98 266.38-20.04 265.68-20.04L265.68-20.04Q264.6-20.04 263.49-19.86 262.38-19.68 261.43-19.14 260.48-18.6 259.79-17.66 259.11-16.72 258.91-15.23L258.91-15.23Q258.74-13.43 258.63-12.27 258.52-11.11 258.47-10.36 258.42-9.62 258.39-9.17 258.35-8.72 258.33-8.33L258.33-8.33Q258.33-8.23 258.29-7.79 258.25-7.35 258.18-6.76 258.11-6.18 258.05-5.49 257.99-4.81 257.91-4.22 257.84-3.64 257.8-3.2 257.77-2.76 257.77-2.66L257.77-2.66Q257.77-2.47 257.78-2.33 257.79-2.2 257.79-2.08L257.79-2.08Q257.79-1.88 257.61-1.75 257.42-1.61 256.79-1.44L256.79-1.44 250.32 0.88Q250.05 0.98 249.61 1.12 249.17 1.27 248.76 1.27L248.76 1.27Q248.42 1.27 248.16 1.1 247.9 0.93 247.9 0.51L247.9 0.51 250-23.68Q250.08-24.49 250.19-24.79 250.29-25.1 250.73-25.2L250.73-25.2Q252.96-25.63 255.32-26.09 257.69-26.54 259.91-27.25L259.91-27.25Q260.11-27.25 260.15-27.19 260.18-27.12 260.18-27L260.18-27Q260.18-26.95 260.17-26.86 260.16-26.76 260.1-26.42 260.04-26.07 259.93-25.38 259.82-24.68 259.62-23.44L259.62-23.44Q260.74-24.32 262.1-25.05 263.45-25.78 264.82-26.31 266.19-26.83 267.46-27.14 268.73-27.44 269.68-27.44L269.68-27.44ZM284.3-27.25L284.3-27.25Q286.62-27.25 288.51-26.38 290.4-25.51 291.76-24.13 293.11-22.75 293.85-21.04 294.58-19.34 294.58-17.63L294.58-17.63Q294.58-16.11 293.65-14.59 292.72-13.06 291.05-11.84 289.38-10.62 287.04-9.86 284.69-9.11 281.88-9.11L281.88-9.11Q280.42-9.11 278.81-9.4L278.81-9.4Q278.91-8.35 279.42-7.59 279.93-6.84 280.71-6.35 281.49-5.86 282.48-5.63 283.47-5.4 284.52-5.4L284.52-5.4Q285.69-5.4 286.78-5.6 287.87-5.81 288.87-6.15 289.87-6.49 290.8-6.91 291.72-7.32 292.55-7.74L292.55-7.74Q292.77-7.79 292.93-7.82 293.09-7.86 293.24-7.86L293.24-7.86Q293.24-7.86 293.22-7.47 293.21-7.08 293.21-6.37 293.21-5.66 293.2-4.66 293.19-3.66 293.16-2.44L293.16-2.44Q293.24-2.32 293.26-2.2 293.29-2.08 293.29-2L293.29-2Q293.29-1.71 292.75-1.37 292.21-1.03 291.34-0.66 290.48-0.29 289.37 0.05 288.26 0.39 287.11 0.67 285.96 0.95 284.89 1.11 283.81 1.27 283.01 1.27L283.01 1.27Q280.37 1.27 277.89 0.35 275.41-0.56 273.5-2.27 271.58-3.98 270.43-6.42 269.29-8.86 269.29-11.91L269.29-11.91Q269.29-15.11 270.39-17.91 271.48-20.7 273.47-22.78 275.46-24.85 278.22-26.05 280.98-27.25 284.3-27.25ZM284.01-20.75L284.01-20.75Q283.01-20.75 282.16-20.32 281.32-19.9 280.63-19.1 279.93-18.31 279.42-17.2 278.91-16.09 278.59-14.75L278.59-14.75Q281.1-15.19 282.76-15.67 284.42-16.16 285.42-16.66 286.43-17.16 286.84-17.66 287.26-18.16 287.26-18.63L287.26-18.63Q287.26-19.07 286.93-19.46 286.6-19.85 286.11-20.14 285.62-20.43 285.05-20.59 284.47-20.75 284.01-20.75ZM298.07-0.07L297.75-6.74Q297.75-6.76 297.74-6.77 297.73-6.79 297.73-6.81L297.73-6.81Q297.73-7.13 298.07-7.13L298.07-7.13Q298.29-7.13 298.46-6.96L298.46-6.96Q299.44-6.03 300.69-5.44 301.95-4.86 303.41-4.86L303.41-4.86Q303.81-4.86 304.32-4.94 304.83-5.03 305.29-5.22 305.76-5.42 306.06-5.75 306.37-6.08 306.37-6.57L306.37-6.57Q306.37-7.1 306.1-7.56 305.83-8.01 305.39-8.3L305.39-8.3Q305.15-8.47 304.54-8.9 303.93-9.33 303.23-9.81 302.54-10.3 301.91-10.74 301.29-11.18 301.05-11.38L301.05-11.38Q299.95-12.21 299.3-13.06 298.65-13.92 298.31-14.83 297.97-15.75 297.87-16.75 297.78-17.75 297.78-18.87L297.78-18.87Q297.78-20.58 298.68-22.09 299.58-23.61 301.06-24.76 302.54-25.9 304.42-26.57 306.3-27.25 308.25-27.25L308.25-27.25Q309.86-27.25 311.42-26.76 312.99-26.27 314.33-25.1L314.33-25.1Q314.45-23.56 314.5-22.07 314.55-20.58 314.65-18.95L314.65-18.95Q314.65-18.63 314.5-18.52 314.35-18.41 314.16-18.41L314.16-18.41Q313.99-18.41 313.86-18.53L313.86-18.53Q313.3-19.07 312.72-19.59 312.13-20.12 311.48-20.52 310.84-20.92 310.1-21.18 309.37-21.44 308.54-21.44L308.54-21.44Q308.03-21.44 307.52-21.35 307-21.26 306.59-21.03 306.17-20.8 305.92-20.41 305.66-20.02 305.66-19.41L305.66-19.41Q305.66-18.7 305.83-18.19 306-17.68 306.64-17.19L306.64-17.19 311.18-14.11Q312.42-13.26 313.19-12.44 313.96-11.62 314.4-10.82 314.84-10.01 315-9.22 315.16-8.42 315.16-7.64L315.16-7.64Q315.16-5.44 314.14-3.77 313.13-2.1 311.52-0.99 309.91 0.12 307.87 0.7 305.83 1.27 303.78 1.27L303.78 1.27Q302.22 1.27 300.77 0.94 299.31 0.61 298.07-0.07L298.07-0.07ZM336.08-18.82L331.54-18.82Q331.2-16.26 330.89-13.71 330.59-11.16 330.51-8.94L330.51-8.94Q330.51-7.98 330.66-7.35 330.8-6.71 331.09-6.35 331.37-5.98 331.76-5.82 332.15-5.66 332.64-5.66L332.64-5.66Q333.42-5.66 334.35-5.9 335.27-6.13 336.2-6.49L336.2-6.49Q336.49-6.62 336.7-6.68 336.91-6.74 337.05-6.74L337.05-6.74Q337.3-6.74 337.38-6.52 337.47-6.3 337.56-5.75 337.64-5.2 337.81-4.27 337.98-3.34 338.37-1.93L338.37-1.93Q338.4-1.81 338.41-1.72 338.42-1.64 338.42-1.56L338.42-1.56Q338.42-1.22 338.17-1.07 337.91-0.93 337.32-0.73L337.32-0.73Q336.32-0.39 335.21-0.04 334.1 0.32 333.01 0.61 331.93 0.9 330.93 1.09 329.93 1.27 329.17 1.27L329.17 1.27Q325.09 1.27 323.22-0.76 321.36-2.78 321.36-6.93L321.36-6.93Q321.36-7.64 321.41-8.39 321.45-9.13 321.53-9.94L321.53-9.94Q321.77-12.38 321.95-14.56 322.14-16.75 322.33-18.75L322.33-18.75 319.77-18.75Q318.45-18.75 317.87-18.86 317.28-18.97 317.28-19.31L317.28-19.31Q317.28-19.41 317.52-19.84 317.77-20.26 318.15-20.86 318.52-21.46 318.96-22.14 319.4-22.83 319.81-23.43 320.21-24.02 320.5-24.46 320.8-24.9 320.87-25L320.87-25 322.6-25Q322.82-26.86 322.96-28.11 323.09-29.37 323.18-30.2 323.26-31.03 323.33-31.48 323.41-31.93 323.49-32.15 323.58-32.37 323.71-32.43 323.85-32.5 324.07-32.54L324.07-32.54Q325.17-32.76 326.19-32.95 327.22-33.13 328.24-33.33 329.27-33.52 330.33-33.78 331.39-34.03 332.54-34.38L332.54-34.38Q332.61-34.38 332.64-34.39 332.66-34.4 332.73-34.4L332.73-34.4Q333.03-34.4 333.03-34.2L333.03-34.2 333.03-34.16Q332.9-32.81 332.65-30.42 332.39-28.03 332.07-25L332.07-25 338.62-25Q338.81-25 339-24.87 339.18-24.73 339.18-24.41L339.18-24.41Q339.18-24.29 338.89-23.54 338.59-22.78 338.06-21.56L338.06-21.56 337.18-19.58Q337.01-19.21 336.82-19.04 336.64-18.87 336.08-18.82L336.08-18.82ZM341.18 0.37L343.96-35.5Q343.96-35.64 343.95-35.77 343.94-35.89 343.94-36.01L343.94-36.01Q343.94-36.23 344.11-36.39 344.28-36.55 344.94-36.72L344.94-36.72 351.8-38.35Q352.07-38.4 352.51-38.57 352.95-38.75 353.36-38.75L353.36-38.75Q354.22-38.75 354.22-37.96L354.22-37.96Q354.22-37.92 354.14-36.96 354.07-36.01 353.95-34.59 353.82-33.18 353.68-31.51 353.53-29.83 353.39-28.32 353.24-26.81 353.12-25.67 352.99-24.54 352.92-24.19L352.92-24.19Q354.07-24.83 355.31-25.39 356.56-25.95 357.82-26.37 359.07-26.78 360.33-27.01 361.59-27.25 362.76-27.25L362.76-27.25Q364.25-27.25 365.54-26.82 366.84-26.39 367.8-25.4 368.77-24.41 369.32-22.81 369.86-21.22 369.86-18.9L369.86-18.9Q369.86-18.31 369.84-17.69 369.82-17.07 369.74-16.41L369.74-16.41 368.69-6.42Q368.57-5.4 368.55-4.28 368.52-3.17 368.52-2L368.52-2Q368.52-1.81 368.53-1.67 368.55-1.54 368.55-1.44L368.55-1.44Q368.55-1.22 368.36-1.1 368.18-0.98 367.55-0.78L367.55-0.78 361.56 0.88Q361.3 0.95 360.86 1.11 360.42 1.27 360 1.27L360 1.27Q359.59 1.27 359.37 1.09 359.15 0.9 359.15 0.37L359.15 0.37Q359.32-1.46 359.43-2.59 359.54-3.71 359.6-4.38 359.66-5.05 359.71-5.41 359.76-5.76 359.78-6.04 359.81-6.32 359.86-6.68 359.9-7.03 359.97-7.71 360.03-8.4 360.14-9.52 360.25-10.64 360.42-12.48L360.42-12.48Q360.51-13.45 360.62-14.42 360.73-15.38 360.73-16.19L360.73-16.19Q360.73-17.21 360.62-18.05 360.51-18.9 360.23-19.49 359.95-20.09 359.46-20.43 358.98-20.78 358.22-20.78L358.22-20.78Q357.66-20.78 356.69-20.53 355.73-20.29 354.76-19.73 353.8-19.17 353.06-18.25 352.31-17.33 352.21-15.99L352.21-15.99Q352.02-14.11 351.91-12.92 351.8-11.72 351.73-10.94 351.65-10.16 351.62-9.69 351.58-9.23 351.55-8.84L351.55-8.84Q351.53-8.72 351.48-8.24 351.43-7.76 351.36-7.1 351.29-6.45 351.21-5.7 351.14-4.96 351.08-4.3 351.02-3.64 350.98-3.16 350.94-2.69 350.94-2.56L350.94-2.56Q350.94-2.37 350.96-2.23 350.97-2.1 350.97-1.98L350.97-1.98Q350.97-1.78 350.79-1.65 350.6-1.51 349.97-1.34L349.97-1.34 343.6 0.88Q343.33 0.98 342.89 1.12 342.45 1.27 342.03 1.27L342.03 1.27Q341.67 1.27 341.42 1.06 341.18 0.85 341.18 0.37L341.18 0.37ZM401.04-27.66L398.52-4.91Q398.5-4.81 398.5-4.72 398.5-4.64 398.5-4.57L398.5-4.57Q398.5-3.96 398.7-3.55 398.89-3.15 399.12-2.89 399.35-2.64 399.55-2.48 399.75-2.32 399.75-2.2L399.75-2.2Q399.75-1.86 399.01-1.56L399.01-1.56 392.45 1.25Q392.42 1.27 392.27 1.27L392.27 1.27Q392.08 1.27 391.88 0.93 391.69 0.59 391.51 0.06 391.32-0.46 391.16-1.06 391.01-1.66 390.88-2.17L390.88-2.17Q389.34-0.39 387.56 0.44 385.78 1.27 384.02 1.27L384.02 1.27Q381.97 1.27 380.02 0.37 378.07-0.54 376.55-2.21 375.04-3.88 374.12-6.25 373.21-8.62 373.21-11.57L373.21-11.57Q373.21-15.06 374.22-17.94 375.23-20.83 376.97-22.9 378.7-24.98 381.01-26.11 383.31-27.25 385.9-27.25L385.9-27.25Q387.73-27.25 389.37-26.5 391.01-25.76 392.47-24.58L392.47-24.58Q392.62-25.32 392.64-25.76 392.67-26.2 392.75-26.44 392.84-26.68 393.08-26.77 393.32-26.86 393.89-26.9L393.89-26.9Q395.64-27.15 397.39-27.36 399.13-27.56 401.04-27.66L401.04-27.66ZM390.2-6.88L391.22-14.11Q391.47-15.5 391.55-16.74 391.64-17.97 391.69-18.99L391.69-18.99Q391.3-19.29 390.85-19.6 390.39-19.92 389.87-20.2 389.34-20.48 388.77-20.65 388.2-20.83 387.56-20.83L387.56-20.83Q386.24-20.83 385.35-19.97 384.46-19.12 383.91-17.87 383.36-16.63 383.13-15.23 382.9-13.84 382.9-12.77L382.9-12.77Q382.9-8.91 383.91-7.12 384.93-5.32 386.73-5.32L386.73-5.32Q387.47-5.32 388.37-5.74 389.27-6.15 390.2-6.88L390.2-6.88Z" opacity="1" transform="matrix(1,0,0,1,0,0)" fill="#ffffff" class="wordmark-text-0" data-fill-palette-color="primary" id="text-0"></path></svg></g></svg></g></svg></g></svg></g><g><svg viewBox="0 0 115.853555113552 115.853555113552" height="115.853555113552" width="115.853555113552"><g><svg></svg></g><g id="icon-0"><svg viewBox="0 0 115.853555113552 115.853555113552" height="115.853555113552" width="115.853555113552"><g><path d="M0 57.927c0-31.992 25.935-57.927 57.927-57.927 31.992 0 57.927 25.935 57.927 57.927 0 31.992-25.935 57.927-57.927 57.927-31.992 0-57.927-25.935-57.927-57.927zM57.927 111.387c29.525 0 53.46-23.935 53.46-53.46 0-29.525-23.935-53.46-53.46-53.46-29.525 0-53.46 23.935-53.46 53.46 0 29.525 23.935 53.46 53.46 53.46z" data-fill-palette-color="accent" fill="#ea5141" stroke="transparent"></path><ellipse rx="57.347509781208245" ry="57.347509781208245" cx="57.926777556776" cy="57.926777556776" fill="#ea5141" stroke="transparent" stroke-width="0" fill-opacity="1" data-fill-palette-color="accent"></ellipse></g><g transform="matrix(1,0,0,1,28.76745255980489,28.766949812822183)"><svg viewBox="0 0 58.31864999394222 58.31965548790764" height="58.31965548790764" width="58.31864999394222"><g><svg xmlns="http://www.w3.org/2000/svg" xmlns:xlink="http://www.w3.org/1999/xlink" version="1.1" x="0" y="0" viewBox="3 3.0060000000000002 58 58.001" style="enable-background:new 0 0 64 64;" xml:space="preserve" height="58.31965548790764" width="58.31864999394222" class="icon-cg-0" data-fill-palette-color="quaternary" id="cg-0"><g fill="#f9f6ed" data-fill-palette-color="quaternary"><path d="M11.042 26.836C11.021 26.562 11 26.287 11 26.007v-4.816c-1.161 0.414-2 1.514-2 2.816C9 25.325 9.859 26.434 11.042 26.836z" fill="#f9f6ed" data-fill-palette-color="quaternary"></path><path d="M26 36.243c-1.242 0.487-2.588 0.764-4 0.764s-2.758-0.277-4-0.764v1.35l4 4 4-4V36.243z" fill="#f9f6ed" data-fill-palette-color="quaternary"></path><path d="M11.397 40.929l-4.978 1.659C4.374 43.27 3 45.176 3 47.332v3.676h6v-3h2v7h10v-9.586l-4.182 4.182L11.397 40.929z" fill="#f9f6ed" data-fill-palette-color="quaternary"></path><path d="M31 19.007H13v7c0 4.963 4.037 9 9 9s9-4.037 9-9V19.007zM17 23.007c-0.552 0-1-0.448-1-1 0-0.552 0.448-1 1-1s1 0.448 1 1C18 22.56 17.552 23.007 17 23.007zM22 32.007c-2.206 0-4-1.794-4-4h2c0 1.103 0.897 2 2 2s2-0.897 2-2h2C26 30.213 24.206 32.007 22 32.007zM27 23.007c-0.552 0-1-0.448-1-1 0-0.552 0.448-1 1-1s1 0.448 1 1C28 22.56 27.552 23.007 27 23.007z" fill="#f9f6ed" data-fill-palette-color="quaternary"></path><polygon points="23.414,43.007 26.818,46.412 30.652,40.278 27.27,39.151  " fill="#f9f6ed" data-fill-palette-color="quaternary"></polygon><polygon points="17.182,46.412 20.586,43.007 16.73,39.151 13.349,40.278  " fill="#f9f6ed" data-fill-palette-color="quaternary"></polygon><rect x="3" y="53.007" width="6" height="2" fill="#f9f6ed" data-fill-palette-color="quaternary"></rect><path d="M33 21.192v4.816c0 0.28-0.021 0.554-0.042 0.829C34.141 26.434 35 25.325 35 24.007 35 22.705 34.161 21.606 33 21.192z" fill="#f9f6ed" data-fill-palette-color="quaternary"></path><path d="M60 39.007H36c-0.552 0-1 0.448-1 1v6 5h26v-11C61 39.456 60.552 39.007 60 39.007zM44.6 47.207l-1.199 1.6-5.067-3.8 5.067-3.8 1.199 1.6-2.933 2.2L44.6 47.207zM47.19 49.508l-1.844-0.775 3.463-8.227 1.844 0.775L47.19 49.508zM52.6 48.807l-1.199-1.6 2.933-2.2-2.933-2.2 1.199-1.6 5.067 3.8L52.6 48.807z" fill="#f9f6ed" data-fill-palette-color="quaternary"></path><path d="M35 54.007c0 0.552 0.448 1 1 1h24c0.552 0 1-0.448 1-1v-1H35V54.007z" fill="#f9f6ed" data-fill-palette-color="quaternary"></path><path d="M11 19.007c0-1.103 0.897-2 2-2h18c1.103 0 2 0.897 2 2v0.101c0.743 0.152 1.416 0.482 2 0.924v-4.026c0-7.168-5.832-13-13-13s-13 5.832-13 13v4.026c0.584-0.442 1.257-0.773 2-0.924V19.007z" fill="#f9f6ed" data-fill-palette-color="quaternary"></path><polygon points="52,57.007 44,57.007 44,59.007 42,59.007 42,61.007 54,61.007 54,59.007 52,59.007  " fill="#f9f6ed" data-fill-palette-color="quaternary"></polygon><polygon points="27.182,49.603 23,45.421 23,55.007 33,55.007 33,48.007 33,42.007 33,41.061 32.603,40.929  " fill="#f9f6ed" data-fill-palette-color="quaternary"></polygon></g></svg></g></svg></g></svg></g></svg></g></svg></g><defs></defs></svg><rect width="395.52" height="85.6876350855089" fill="none" stroke="none" visibility="hidden"></rect></g></svg></g></svg>